<?xml version="1.0" encoding="utf-8"?>
<!-- Generator: Adobe Illustrator 15.0.2, SVG Export Plug-In . SVG Version: 6.00 Build 0)  -->
<!DOCTYPE svg PUBLIC "-//W3C//DTD SVG 1.1//EN" "http://www.w3.org/Graphics/SVG/1.1/DTD/svg11.dtd">
<svg version="1.1" id="Layer_1" xmlns="http://www.w3.org/2000/svg" xmlns:xlink="http://www.w3.org/1999/xlink" x="0px" y="0px"
	 width="15.861px" height="16.021px" viewBox="0 0 15.861 16.021" enable-background="new 0 0 15.861 16.021" xml:space="preserve">
<path fill="#94938F" d="M10.319,0c3.062,0,5.543,2.481,5.543,5.543c0,3.062-2.481,5.542-5.543,5.542
	c-3.062,0-5.543-2.479-5.543-5.542C4.776,2.483,7.257,0,10.319,0z M5.943,5.544c0,2.418,1.959,4.377,4.376,4.377
	s4.376-1.959,4.376-4.377c0-2.417-1.959-4.376-4.376-4.376S5.943,3.127,5.943,5.544z"/>
<rect x="1.689" y="10.899" transform="matrix(-0.707 0.7072 -0.7072 -0.707 15.8766 16.3879)" fill="#94938F" width="5.709" height="1.167"/>
<path fill="#94938F" d="M4.321,10.832c-0.192-0.191-0.504-0.191-0.696,0l-3.479,3.479c-0.193,0.191-0.193,0.504,0,0.695l0.87,0.869
	c0.19,0.192,0.504,0.192,0.694,0l3.48-3.479c0.19-0.192,0.19-0.504,0-0.695L4.321,10.832z"/>
</svg>
