<?xml version="1.0" encoding="utf-8"?>
<!-- Generator: Adobe Illustrator 15.0.2, SVG Export Plug-In . SVG Version: 6.00 Build 0)  -->
<!DOCTYPE svg PUBLIC "-//W3C//DTD SVG 1.1//EN" "http://www.w3.org/Graphics/SVG/1.1/DTD/svg11.dtd">
<svg version="1.1"
	 id="svg2989" inkscape:version="0.48.3.1 r9886" xmlns:svg="http://www.w3.org/2000/svg" xmlns:rdf="http://www.w3.org/1999/02/22-rdf-syntax-ns#" xmlns:cc="http://creativecommons.org/ns#" xmlns:dc="http://purl.org/dc/elements/1.1/" xmlns:inkscape="http://www.inkscape.org/namespaces/inkscape" sodipodi:docname="circle_arrow_left_font_awesome.svg" xmlns:sodipodi="http://sodipodi.sourceforge.net/DTD/sodipodi-0.dtd"
	 xmlns="http://www.w3.org/2000/svg" xmlns:xlink="http://www.w3.org/1999/xlink" x="0px" y="0px" width="15.57px" height="15.57px"
	 viewBox="0 0 15.57 15.57" enable-background="new 0 0 15.57 15.57" xml:space="preserve">
<sodipodi:namedview  borderopacity="1" inkscape:current-layer="svg2989" inkscape:window-maximized="0" inkscape:window-y="25" inkscape:window-x="0" inkscape:cx="896" inkscape:zoom="0.13169643" inkscape:cy="896" showgrid="false" inkscape:window-width="640" inkscape:pageshadow="2" inkscape:pageopacity="0" guidetolerance="10" gridtolerance="10" pagecolor="#ffffff" id="namedview2995" inkscape:window-height="480" objecttolerance="10" bordercolor="#666666">
	</sodipodi:namedview>
<g id="g2991" transform="matrix(1,0,0,-1,129.08475,1277.8305)">
	<path id="path2993" inkscape:connector-curvature="0" d="M-121.948,1264.854h1.298c0.176,0,0.328,0.064,0.456,0.193
		c0.129,0.129,0.192,0.281,0.192,0.457v5.088l1.916-1.917c0.129-0.129,0.28-0.191,0.457-0.191c0.176,0,0.326,0.062,0.455,0.191
		l0.924,0.922c0.121,0.122,0.182,0.274,0.182,0.456c0,0.183-0.061,0.334-0.182,0.457l-3.67,3.669l-0.924,0.922
		c-0.121,0.122-0.273,0.183-0.455,0.183c-0.184,0-0.336-0.061-0.457-0.183l-0.923-0.922l-3.67-3.669
		c-0.121-0.122-0.183-0.274-0.183-0.457c0-0.182,0.062-0.334,0.183-0.456l0.923-0.922c0.121-0.121,0.273-0.184,0.456-0.184
		c0.184,0,0.335,0.062,0.456,0.184l1.916,1.917v-5.088c0-0.176,0.064-0.328,0.192-0.457
		C-122.275,1264.918-122.124,1264.854-121.948,1264.854z M-121.298,1262.26c-1.413,0-2.717,0.348-3.908,1.043
		c-1.192,0.697-2.139,1.641-2.833,2.834c-0.696,1.193-1.045,2.496-1.045,3.909c0,1.413,0.349,2.715,1.045,3.907
		c0.694,1.193,1.641,2.138,2.833,2.833c1.191,0.696,2.495,1.044,3.908,1.044c1.411,0,2.715-0.348,3.907-1.044
		c1.192-0.695,2.138-1.641,2.833-2.833c0.696-1.191,1.044-2.495,1.044-3.907c0-1.413-0.348-2.713-1.044-3.909
		c-0.695-1.193-1.641-2.137-2.833-2.834C-118.584,1262.608-119.887,1262.26-121.298,1262.26z"/>
</g>
</svg>
